<svg width="24" height="24" viewBox="0 0 24 24" fill="none" xmlns="http://www.w3.org/2000/svg">
<g id="solar:tag-price-bold">
<path id="Vector" fill-rule="evenodd" clip-rule="evenodd" d="M16.137 4.728L17.967 6.558C20.656 9.248 22 10.592 22 12.262C22 13.933 20.656 15.277 17.967 17.966C15.277 20.656 13.933 22 12.262 22C10.592 22 9.24699 20.656 6.55799 17.967L4.72799 16.137C3.18299 14.591 2.40999 13.819 2.12299 12.816C1.83499 11.813 2.08099 10.748 2.57299 8.619L2.85599 7.391C3.26899 5.599 3.47599 4.703 4.08899 4.089C4.70199 3.475 5.59899 3.269 7.39099 2.856L8.61899 2.572C10.749 2.081 11.813 1.835 12.816 2.122C13.819 2.41 14.592 3.183 16.137 4.728ZM11.146 14.328C10.473 13.656 10.478 12.69 10.881 11.925C10.7812 11.7809 10.7351 11.6064 10.7506 11.4318C10.766 11.2572 10.8422 11.0936 10.9658 10.9693C11.0894 10.845 11.2526 10.7679 11.4271 10.7514C11.6016 10.7349 11.7763 10.7801 11.921 10.879C12.261 10.699 12.634 10.603 13.006 10.607C13.2049 10.6089 13.3949 10.6897 13.5343 10.8316C13.6736 10.9736 13.7508 11.1651 13.749 11.364C13.7471 11.5629 13.6663 11.7529 13.5244 11.8923C13.3824 12.0316 13.1909 12.1089 12.992 12.107C12.7604 12.1156 12.5416 12.2151 12.383 12.384C11.996 12.771 12.097 13.159 12.206 13.268C12.316 13.377 12.703 13.478 13.09 13.091C13.874 12.307 15.228 12.047 16.095 12.914C16.768 13.587 16.763 14.553 16.36 15.318C16.4591 15.4621 16.5048 15.6364 16.489 15.8106C16.4732 15.9849 16.3971 16.1481 16.2736 16.2721C16.1502 16.3961 15.9874 16.473 15.8132 16.4896C15.6391 16.5062 15.4646 16.4614 15.32 16.363C14.8713 16.6092 14.3507 16.6913 13.848 16.595C13.6531 16.555 13.482 16.4391 13.3725 16.273C13.263 16.1068 13.2239 15.9039 13.264 15.709C13.304 15.5141 13.4199 15.343 13.586 15.2335C13.7522 15.124 13.9551 15.085 14.15 15.125C14.327 15.162 14.613 15.104 14.858 14.859C15.245 14.471 15.144 14.084 15.035 13.975C14.925 13.866 14.538 13.765 14.151 14.152C13.367 14.936 12.013 15.196 11.146 14.328ZM10.02 10.293C10.2057 10.1072 10.353 9.88674 10.4534 9.64406C10.5539 9.40139 10.6056 9.1413 10.6055 8.87865C10.6055 8.616 10.5537 8.35593 10.4532 8.11329C10.3526 7.87065 10.2052 7.65019 10.0195 7.4645C9.83373 7.27881 9.61322 7.13153 9.37055 7.03106C9.12787 6.93059 8.86779 6.8789 8.60513 6.87895C8.34248 6.879 8.08242 6.93078 7.83978 7.03133C7.59714 7.13189 7.37668 7.27925 7.19099 7.465C6.81597 7.84015 6.60534 8.34891 6.60544 8.87935C6.60553 9.4098 6.81634 9.91848 7.19149 10.2935C7.56664 10.6685 8.0754 10.8791 8.60584 10.8791C9.13629 10.879 9.64497 10.6681 10.02 10.293Z" fill="black"/>
</g>
</svg>
